
<svg xmlns="http://www.w3.org/2000/svg" version="1.1" xmlns:xlink="http://www.w3.org/1999/xlink" preserveAspectRatio="none" x="0px" y="0px" width="240px" height="37px" viewBox="0 0 240 37">
<defs>
<linearGradient id="Gradient_1" gradientUnits="userSpaceOnUse" x1="180" y1="1.2124999999999986" x2="180" y2="35.7875" spreadMethod="pad">
<stop  offset="0%" stop-color="#FDF125"/>

<stop  offset="100%" stop-color="#E5B914"/>
</linearGradient>

<linearGradient id="Gradient_2" gradientUnits="userSpaceOnUse" x1="60" y1="1.2124999999999986" x2="60" y2="35.7875" spreadMethod="pad">
<stop  offset="0%" stop-color="#FDF125"/>

<stop  offset="100%" stop-color="#E5B914"/>
</linearGradient>

<linearGradient id="Gradient_3" gradientUnits="userSpaceOnUse" x1="180" y1="1.0124999999999993" x2="180" y2="35.9875" spreadMethod="pad">
<stop  offset="0%" stop-color="#FAC40F"/>

<stop  offset="100%" stop-color="#FBD014"/>
</linearGradient>

<linearGradient id="Gradient_4" gradientUnits="userSpaceOnUse" x1="60" y1="35.9875" x2="60" y2="1.0124999999999993" spreadMethod="pad">
<stop  offset="0%" stop-color="#FAC40F"/>

<stop  offset="100%" stop-color="#FBD014"/>
</linearGradient>

<g id="Layer4_0_FILL">
<path fill="#000000" fill-opacity="0.2980392156862745" stroke="none" d="
M 236 37
Q 240 37 240 33
L 240 4
Q 240 0 236 0
L 124 0
Q 120.0625 0 120 3.85 119.9375 0 116 0
L 4 0
Q 0 0 0 4
L 0 33
Q 0 37 4 37
L 116 37
Q 119.9375 37 120 33.1 120.0625 37 124 37
L 236 37 Z"/>
</g>

<g id="Layer3_0_FILL">
<path fill="url(#Gradient_1)" stroke="none" d="
M 239 4
Q 239 1 236 1
L 124 1
Q 121 1 121 4
L 121 33
Q 121 36 124 36
L 236 36
Q 239 36 239 33
L 239 4 Z"/>

<path fill="url(#Gradient_2)" stroke="none" d="
M 119 33
L 119 4
Q 119 1 116 1
L 4 1
Q 1 1 1 4
L 1 33
Q 1 36 4 36
L 116 36
Q 119 36 119 33 Z"/>
</g>

<g id="Layer2_0_FILL">
<path fill="url(#Gradient_3)" stroke="none" d="
M 236 35
Q 238 35 238 33
L 238 4
Q 238 2 236 2
L 124 2
Q 122 2 122 4
L 122 33
Q 122 35 124 35
L 236 35 Z"/>

<path fill="url(#Gradient_4)" stroke="none" d="
M 118 4
Q 118 2 116 2
L 4 2
Q 2 2 2 4
L 2 33
Q 2 35 4 35
L 116 35
Q 118 35 118 33
L 118 4 Z"/>
</g>

<g id="Layer1_0_FILL">
<path fill="#FFFFFF" fill-opacity="0.4980392156862745" stroke="none" d="
M 183.15 16.1
Q 182.95 16.1 182.8 16.1 181.75 16.1 180.95 16.7 180.4 16.2 179.35 16.2
L 177.6 16.2
Q 177.2 16.2 176.9 16.5 176.6 16.8 176.6 17.2
L 176.6 17.45
Q 175.35 16 173.3 16 171.2 16 169.8 17.45 169.3 17.95 169 18.6 168.75 18 168.35 17.55 167.15 16 165.1 16 164.35 16 163.8 16.15
L 163.8 15.2
Q 163.8 13.2 161.75 13.2
L 159.95 13.2
Q 159.55 13.2 159.25 13.5 158.95 13.8 158.95 14.2
L 158.95 15.8
Q 158.95 16.2 159.25 16.5 159.55 16.8 159.9 16.8
L 159.9 22.4
Q 159.7 22.25 159.5 22.25
L 159.5 20.05
Q 159.5 16 155.2 16 154 16 153.2 16.4 151.3 16.95 151.4 18.6
L 151.4 19.4
Q 151.4 19.8 151.7 20.1 151.8 20.2 151.9 20.25 151.7 20.4 151.6 20.55 151.35 19.9 150.9 19.4 150.85 19.3 150.75 19.2 150.15 18.6 149.15 18.1
L 150.5 18.1
Q 150.9 18.1 151.2 17.8 151.5 17.5 151.5 17.1
L 151.5 16.1
Q 151.55 14.5 149.9 13.6 149.75 13.55 149.7 13.55 148.65 13 147.35 13 145.4 13 144.2 14.1
L 144.2 14.15
Q 142.8 15.2 142.8 17 142.8 18.5 143.8 19.6 143.8 19.65 143.9 19.75 144.55 20.3 145.9 20.95 147.25 21.65 147.55 21.8
L 147.6 21.85
Q 147.75 21.95 147.8 22.1
L 147.8 22.15
Q 147.55 22.25 147.25 22.25 146.2 22.25 145.5 21.4
L 145.45 21.35
Q 145.15 21.05 144.9 21.05 144.65 21 144.4 21.1 144.15 21.15 143.95 21.35 143.9 21.35 143.9 21.4
L 142.8 22.8 142.8 22.85
Q 142.6 23.1 142.6 23.4 142.6 23.7 142.8 24 144.4 26.05 147.25 26.05 149.25 26.05 150.55 24.9
L 150.55 24.85
Q 150.9 24.5 151.15 24.15 151.4 24.75 151.95 25.2
L 152.05 25.25
Q 152.95 26.05 154.4 26.05 155.65 26.05 156.45 25.55 156.9 25.85 157.7 25.85
L 159.4 25.85
Q 159.8 25.85 160.1 25.55
L 160.15 25.5 160.2 25.55
Q 160.5 25.85 160.9 25.85
L 162.7 25.85
Q 163 25.85 163.2 25.7 163.95 26.05 164.95 26.05 167 26.05 168.3 24.65 168.75 24.1 169.05 23.4 168.85 23.05 168.75 22.7 168.9 22.15 168.95 21.5
L 169 21.5
Q 169.05 22.15 169.25 22.75 169.15 23.1 169.05 23.4 169.35 24.05 169.85 24.55 171.3 26.05 173.55 26.05 175.85 26.05 177.3 24.6 177.45 24.45 177.55 24.25
L 177.55 24.85
Q 177.55 25.25 177.85 25.55 178.15 25.85 178.55 25.85
L 180.45 25.85
Q 180.85 25.85 181.15 25.55 181.45 25.25 181.45 24.85
L 181.45 21.8
Q 181.45 21.3 181.6 20.85 181.65 20.45 182 20.25 182.1 20.15 182.15 20.1 182.4 19.95 182.7 19.95 182.8 19.95 182.9 20 182.95 20 183.05 20 183.2 20 183.35 20 183.55 20 183.7 19.85 183.8 19.75 183.9 19.65 183.95 19.6 184 19.6 184.15 19.3 184.15 19
L 184.15 17.1
Q 184.15 16.7 183.85 16.4 183.55 16.1 183.15 16.1
M 165.25 19.95
Q 165.55 20.35 165.55 21.05 165.55 21.65 165.35 22.1 165.3 22.1 165.3 22.15 165.05 22.4 164.65 22.4 164.25 22.4 164 22.1 164 22.05 163.95 22.05 163.75 21.65 163.75 21.05 163.75 20.3 164.1 19.95
L 164.1 19.9
Q 164.3 19.65 164.65 19.65 165 19.65 165.2 19.9 165.2 19.95 165.25 19.95
M 174.15 22.35
Q 173.9 22.4 173.65 22.4 173.4 22.4 173.25 22.35
L 174.15 22.35
M 177.55 21.8
L 177.55 23.5
Q 177.5 23.45 177.5 23.4
L 176.85 22.35
Q 177.1 22.3 177.3 22.2 177.35 22.1 177.45 22.05 177.5 21.9 177.55 21.8
M 147.85 17.55
Q 147.4 17.35 147.2 17.25 147.05 17.15 147 17.15 146.85 17.05 146.8 16.95
L 146.85 16.95
Q 147 16.8 147.35 16.8 147.6 16.8 147.75 16.9
L 147.75 17.1
Q 147.75 17.35 147.85 17.55
M 155.9 19.2
L 155.95 19.25 155.65 19.6
Q 155.6 19.55 155.6 19.6
L 155.5 19.5 155.55 19.6
Q 155.4 19.5 155.15 19.5 155.15 19.45 155.15 19.4
L 155.15 19.1
Q 155.4 19.05 155.65 19.05 155.8 19.1 155.9 19.2
M 154.35 22.9
Q 154.2 22.75 154.2 22.55 154.3 21.9 156.1 21.85 156 22.25 155.75 22.6
L 155.7 22.6
Q 155.35 23.05 154.85 23.05 154.55 23.05 154.35 22.9
M 208.8 14.15
Q 208.8 13.65 208.45 13.45 208.15 13.2 207.8 13.2
L 205.95 13.2
Q 205.65 13.2 205.45 13.35 205.15 13.5 205.05 13.75
L 205.05 13.7 203.95 15.75 204 15.75
Q 203.85 15.95 203.85 16.2 203.55 16.3 203.35 16.4 201.5 17 201.6 18.6
L 201.6 19.4
Q 201.6 19.8 201.9 20.1 202 20.2 202.1 20.25 201.6 20.6 201.35 21.1
L 201.35 22.25
Q 201.3 22.25 201.25 22.25
L 201 22.25
Q 201.05 21.6 201.35 21.1
L 201.35 19.95
Q 201.35 17.95 200.5 17 199.6 15.95 197.85 16 196.65 16 195.75 16.7 195.55 16.8 195.4 16.95 194.5 16 192.95 16 191.95 16 191 16.65 190.45 16.2 189.45 16.2
L 187.7 16.2
Q 187.3 16.2 187 16.5 186.7 16.8 186.7 17.2
L 186.7 18.8
Q 186.7 19.2 187 19.5 187.3 19.8 187.65 19.8
L 187.65 24.85
Q 187.65 25.25 187.95 25.55 188.25 25.85 188.65 25.85
L 190.55 25.85
Q 190.95 25.85 191.25 25.55 191.55 25.25 191.55 24.85
L 191.55 21.5
Q 191.55 21.2 191.6 20.95 191.65 20.9 191.65 20.8 191.75 20.35 191.95 20.1 192.05 20.05 192.1 19.95 192.25 19.75 192.5 19.75
L 192.55 19.8
Q 192.55 20 192.55 20.3
L 192.55 24.85
Q 192.55 25.25 192.85 25.55 193.15 25.85 193.55 25.85
L 195.45 25.85
Q 195.85 25.85 196.15 25.55 196.45 25.25 196.45 24.85
L 196.45 21.5
Q 196.45 21.05 196.55 20.8 196.6 20.35 196.85 20.1 196.95 20.05 197 19.95 197.15 19.75 197.35 19.75 197.45 19.85 197.45 20.3
L 197.45 23.85
Q 197.45 25.85 199.45 25.85
L 201.25 25.85
Q 201.65 25.85 201.95 25.55 202.1 25.4 202.2 25.25
L 202.2 25.2
Q 202.201171875 25.25 202.25 25.25 203.15 26.05 204.6 26.05 205.85 26.05 206.65 25.55 207.1 25.85 207.9 25.85
L 209.6 25.85
Q 210 25.85 210.3 25.55 210.45 25.4 210.5 25.3 211.7 26.05 213.45 26.05 215.15 26.05 216.2 25.2 216.3 25.15 216.35 25.05 217.4 24.15 217.4 22.75
L 217.4 22.7
Q 217.45 21.35 216.3 20.4 216.55 20.35 216.8 20.1 217.1 19.8 217.1 19.4
L 217.1 18.6
Q 217.2 17.15 215.55 16.45
L 215.6 16.45
Q 214.65 16 213.4 16 211.85 16 210.85 16.75 209.75 17.45 209.55 18.55 209.05 16.9 207.45 16.3
L 208.6 14.8 208.65 14.8
Q 208.8 14.5 208.8 14.15
M 206.1 19.2
L 206.15 19.25 205.85 19.6
Q 205.8 19.55 205.8 19.6
L 205.7 19.5 205.75 19.6
Q 205.6 19.5 205.35 19.5 205.35 19.45 205.35 19.4
L 205.35 19.1
Q 205.6 19.05 205.85 19.05 206 19.1 206.1 19.2
M 205.4 22.45
Q 205.25 22.55 205.05 22.55
L 205 22.55
Q 205.1 22.45 205.4 22.45
M 210.35 21.8
L 209.7 22.7 209.7 20.5
Q 210 21.1 210.6 21.6 210.5 21.65 210.4 21.75 210.35 21.75 210.35 21.8
M 213.95 19.05
L 213.95 19.3 213.9 19.5 213.45 19.05 213.45 19.4
Q 213.45 19.45 213.45 19.5 213.25 19.5 213.35 19.35
L 213.3 19 213.35 19 213.4 19.05 213.4 19
Q 213.55 19.05 213.8 19.15
L 213.9 19.05 213.95 19.05
M 63.85 15.4
Q 63.5509765625 15.0974609375 63.15 15.1 62.95 15.1 62.8 15.1 61.728125 15.0970703125 60.9 15.7 60.40625 15.203515625 59.35 15.2
L 57.6 15.2
Q 57.1990234375 15.1974609375 56.9 15.5 56.5974609375 15.7990234375 56.6 16.2
L 56.6 16.45
Q 55.3669921875 14.9990234375 53.3 15 51.18828125 15.00234375 49.8 16.45 49.295703125 16.946875 48.95 17.55 48.730078125 17.0111328125 48.35 16.55
L 48.3 16.5
Q 47.1326171875 15.0083984375 45.1 15 44.373046875 15.0025390625 43.8 15.15
L 43.8 14.2
Q 43.8080078125 12.2 41.75 12.2
L 39.95 12.2
Q 39.5490234375 12.1974609375 39.25 12.5 38.9474609375 12.7990234375 38.95 13.2
L 38.95 14.8
Q 38.9474609375 15.2009765625 39.25 15.5 39.5302734375 15.78359375 39.9 15.8
L 39.9 21.4
Q 39.716015625 21.2728515625 39.5 21.25
L 39.5 19.05
Q 39.5166015625 15 35.2 15 34.0171875 15.0015625 33.2 15.35 31.3140625 15.942578125 31.4 17.6
L 31.4 18.4
Q 31.3974609375 18.8009765625 31.7 19.1 31.790234375 19.19140625 31.9 19.25 31.7212890625 19.389453125 31.55 19.55 31.340234375 18.90390625 30.85 18.35 30.832421875 18.28046875 30.75 18.2 30.167578125 17.610546875 29.1 17.1
L 30.5 17.1
Q 30.9009765625 17.1025390625 31.2 16.8 31.5025390625 16.5009765625 31.5 16.1
L 31.5 15.1
Q 31.5693359375 13.512109375 29.85 12.6 29.7720703125 12.54375 29.65 12.55 28.6400390625 12.0015625 27.35 12 25.4173828125 11.9974609375 24.2 13.1
L 24.15 13.1
Q 22.80625 14.22109375 22.8 16 22.7962890625 17.51171875 23.75 18.6 23.81015625 18.66640625 23.85 18.7 24.5568359375 19.3126953125 25.85 19.95 27.226953125 20.6509765625 27.5 20.8 27.5609375 20.8169921875 27.6 20.8 27.7587890625 20.953125 27.8 21.05 27.790625 21.122265625 27.75 21.15 27.548828125 21.25390625 27.25 21.25 26.2201171875 21.24140625 25.45 20.35
L 25.45 20.35
Q 25.1345703125 20.03125 24.9 20.05 24.646484375 19.990625 24.4 20.05 24.1294921875 20.16640625 23.95 20.35 23.92421875 20.37421875 23.9 20.4
L 22.8 21.8 22.75 21.8
Q 22.587890625 22.111328125 22.6 22.4 22.587890625 22.688671875 22.75 22.95
L 22.8 23
Q 24.391015625 25.045703125 27.25 25.05 29.2517578125 25.052734375 30.5 23.85
L 30.55 23.85
Q 30.8806640625 23.5203125 31.1 23.15 31.403515625 23.7369140625 31.9 24.15 31.972265625 24.215625 32 24.25 32.9416015625 25.0548828125 34.4 25.05 35.658203125 25.048828125 36.45 24.55 36.9220703125 24.84765625 37.7 24.85
L 39.4 24.85
Q 39.8009765625 24.8525390625 40.1 24.55 40.1263671875 24.5240234375 40.15 24.5 40.1736328125 24.5240234375 40.2 24.55 40.4990234375 24.8525390625 40.9 24.85
L 42.7 24.85
Q 42.976171875 24.8517578125 43.2 24.7 43.926171875 25.0517578125 44.95 25.05 46.97734375 25.0509765625 48.25 23.65
L 48.25 23.6
Q 48.7396484375 23.079296875 49 22.4 48.846875 22.0673828125 48.7 21.7 48.8857421875 21.14765625 48.9 20.5
L 48.95 20.5
Q 49.0330078125 21.15 49.25 21.7 49.1609375 22.0775390625 49 22.4 49.3435546875 23.028515625 49.85 23.55 51.2830078125 25.0515625 53.55 25.05 55.8689453125 25.0482421875 57.3 23.6 57.46015625 23.443359375 57.55 23.2
L 57.55 23.85
Q 57.5474609375 24.2509765625 57.85 24.55 58.1490234375 24.8525390625 58.55 24.85
L 60.45 24.85
Q 60.8509765625 24.8525390625 61.15 24.55 61.4525390625 24.2509765625 61.45 23.85
L 61.45 20.8
Q 61.4466796875 20.3125 61.55 19.8 61.674609375 19.428125 62 19.2 62.093359375 19.17109375 62.15 19.05 62.39296875 18.95 62.7 18.95 62.8134765625 18.9501953125 62.9 18.95 62.9744140625 19.0001953125 63.05 19 63.2 19 63.35 19 63.5552734375 18.9982421875 63.7 18.85 63.8 18.75 63.9 18.65 63.940625 18.615234375 63.95 18.55 64.162109375 18.288671875 64.15 18
L 64.15 16.1
Q 64.1525390625 15.6990234375 63.85 15.4
M 45.25 18.95
Q 45.5451171875 19.3478515625 45.55 20.05 45.5517578125 20.6642578125 45.3 21.05 45.299609375 21.0970703125 45.25 21.1 45.025 21.4033203125 44.65 21.4 44.24609375 21.407421875 44 21.1 43.9787109375 21.07265625 43.95 21.05 43.7513671875 20.6388671875 43.75 20.05 43.7515625 19.31875 44.05 18.9
L 44.1 18.9
Q 44.3009765625 18.6416015625 44.65 18.65 44.998828125 18.6416015625 45.2 18.9 45.2236328125 18.925390625 45.25 18.95
M 53.65 21.4
Q 53.423046875 21.398828125 53.2 21.35
L 54.1 21.35
Q 53.8958984375 21.3990234375 53.65 21.4
M 57.4 21
Q 57.498046875 20.9111328125 57.55 20.75
L 57.55 22.55
Q 57.5390625 22.5396484375 57.5 22.5 57.5041015625 22.4486328125 57.45 22.4
L 56.85 21.3
Q 57.0826171875 21.3005859375 57.25 21.15 57.3640625 21.1140625 57.4 21
M 27.75 15.9
L 27.75 16.1
Q 27.7486328125 16.3265625 27.85 16.5 27.4140625 16.3353515625 27.15 16.25 27.0734375 16.1541015625 26.95 16.1 26.850390625 16.0341796875 26.8 15.95
L 26.8 15.9
Q 27.012890625 15.7953125 27.35 15.8 27.5767578125 15.8001953125 27.75 15.9
M 35.9 18.2
L 35.9 18.2 35.65 18.55
Q 35.6162109375 18.571484375 35.55 18.55
L 35.45 18.45
Q 35.5052734375 18.5166015625 35.5 18.55 35.3833984375 18.5037109375 35.15 18.5 35.1521484375 18.4501953125 35.15 18.4
L 35.15 18.1
Q 35.3828125 18.071484375 35.6 18.05 35.7890625 18.1087890625 35.9 18.2
M 34.85 22.05
Q 34.5310546875 22.0517578125 34.35 21.9 34.2025390625 21.7490234375 34.2 21.55 34.284765625 20.890625 36.05 20.85 35.9990234375 21.24375 35.7 21.55
L 35.7 21.6
Q 35.3583984375 22.04375 34.85 22.05
M 85.95 12.2
Q 85.6630859375 12.205078125 85.45 12.35 85.1498046875 12.4875 85.05 12.7
L 85.05 12.7 83.95 14.75 83.95 14.7
Q 83.8287109375 14.941015625 83.8 15.2 83.5580078125 15.28125 83.3 15.4 81.515625 15.9759765625 81.6 17.6
L 81.6 18.4
Q 81.5974609375 18.8009765625 81.9 19.1 81.990234375 19.19140625 82.1 19.25 81.62265625 19.6228515625 81.35 20.1
L 81.35 21.25
Q 81.3013671875 21.2501953125 81.25 21.25
L 81 21.25
Q 81.05625 20.614453125 81.35 20.1
L 81.35 18.95
Q 81.348828125 16.9703125 80.45 16 79.6080078125 14.966015625 77.85 15 76.6484375 15.0025390625 75.7 15.65 75.5392578125 15.79375 75.35 15.9 74.501953125 14.99921875 72.95 15 71.9330078125 14.995703125 70.95 15.6 70.4458984375 15.2041015625 69.45 15.2
L 67.7 15.2
Q 67.2990234375 15.1974609375 67 15.5 66.6974609375 15.7990234375 66.7 16.2
L 66.7 17.8
Q 66.6974609375 18.2009765625 67 18.5 67.2802734375 18.78359375 67.65 18.8
L 67.65 23.85
Q 67.6474609375 24.2509765625 67.95 24.55 68.2490234375 24.8525390625 68.65 24.85
L 70.55 24.85
Q 70.9509765625 24.8525390625 71.25 24.55 71.5525390625 24.2509765625 71.55 23.85
L 71.55 20.5
Q 71.545703125 20.2138671875 71.6 19.95 71.6310546875 19.883203125 71.65 19.8 71.73828125 19.3591796875 71.9 19.1 72.0296875 19.0455078125 72.1 18.95 72.24609375 18.7552734375 72.45 18.75
L 72.5 18.75
Q 72.518359375 18.77265625 72.5 18.8 72.546484375 18.9916015625 72.55 19.3
L 72.55 23.85
Q 72.5474609375 24.2509765625 72.85 24.55 73.1490234375 24.8525390625 73.55 24.85
L 75.45 24.85
Q 75.8509765625 24.8525390625 76.15 24.55 76.4525390625 24.2509765625 76.45 23.85
L 76.45 20.5
Q 76.4501953125 20.048828125 76.5 19.8
L 76.5 19.75
Q 76.621484375 19.365625 76.8 19.1 76.9296875 19.0455078125 77 18.95 77.134765625 18.7703125 77.35 18.75 77.44765625 18.8283203125 77.45 19.3
L 77.45 22.85
Q 77.45 24.85 79.45 24.85
L 81.25 24.85
Q 81.6509765625 24.8525390625 81.95 24.55 82.1044921875 24.397265625 82.15 24.2
L 82.15 24.2
Q 82.2078125 24.230078125 82.25 24.25 83.1607421875 25.0548828125 84.6 25.05 85.858203125 25.048828125 86.65 24.55 87.1220703125 24.84765625 87.9 24.85
L 89.6 24.85
Q 90.0009765625 24.8525390625 90.3 24.55 90.43203125 24.4193359375 90.5 24.25 91.6912109375 25.0541015625 93.45 25.05 95.1369140625 25.0537109375 96.2 24.2 96.2802734375 24.1376953125 96.3 24.05 97.3904296875 23.1404296875 97.4 21.7
L 97.4 21.7
Q 97.4625 20.33203125 96.25 19.35 96.5677734375 19.3349609375 96.8 19.1 97.1025390625 18.8009765625 97.1 18.4
L 97.1 17.6
Q 97.184375 16.1388671875 95.55 15.45
L 95.55 15.45
Q 94.6265625 15.001171875 93.4 15 91.837890625 15.0025390625 90.8 15.7 89.7556640625 16.425390625 89.5 17.55 89.0580078125 15.890625 87.4 15.3
L 88.6 13.8 88.6 13.75
Q 88.8044921875 13.5080078125 88.8 13.15 88.7873046875 12.6701171875 88.4 12.4 88.15078125 12.1978515625 87.8 12.2
L 85.95 12.2
M 86.1 18.2
L 86.1 18.2 85.85 18.55
Q 85.8162109375 18.571484375 85.75 18.55
L 85.65 18.45
Q 85.7052734375 18.5166015625 85.7 18.55 85.5833984375 18.5037109375 85.35 18.5 85.3521484375 18.4501953125 85.35 18.4
L 85.35 18.1
Q 85.5828125 18.071484375 85.8 18.05 85.9890625 18.1087890625 86.1 18.2
M 85.05 21.55
Q 85.016015625 21.55 84.95 21.55 85.106640625 21.47265625 85.35 21.4 85.2310546875 21.5439453125 85.05 21.55
M 89.7 19.5
Q 89.987109375 20.09609375 90.6 20.6 90.4890625 20.6587890625 90.4 20.75 90.3736328125 20.774609375 90.35 20.8
L 89.7 21.65 89.7 19.5
M 93.35 18
L 93.4 18 93.35 18
Q 93.539453125 18.0544921875 93.8 18.15
L 93.85 18.05
Q 93.9220703125 18.060546875 93.95 18.05
L 93.95 18.3 93.85 18.45 93.45 18.05 93.45 18.4
Q 93.449609375 18.4501953125 93.45 18.5 93.26015625 18.5017578125 93.3 18.3
L 93.3 18 93.35 18 Z"/>
</g>

<g id="Layer0_0_FILL">
<path fill="#000000" stroke="none" d="
M 155.2 17
Q 154.2 17 153.5 17.3 152.4 17.65 152.4 18.6
L 152.4 19.4 154.15 19.4 154.15 19
Q 154.15 18.5 155.15 18.5 155.9 18.5 156.25 18.85 156.6 19.2 156.6 20
L 156.6 20.05 156.35 20.05
Q 154.7 20.05 153.6 20.45 151.8 21.1 151.8 22.65 151.8 23.75 152.6 24.4 153.3 25.05 154.4 25.05 156.15 25.05 156.7 23.7
L 156.75 23.7
Q 156.75 23.8 156.75 24 156.75 24.85 157.7 24.85
L 159.4 24.85 159.4 23.25 158.8 23.25
Q 158.5 23.25 158.5 22.9
L 158.5 20.05
Q 158.5 17 155.2 17
M 156.3 21.35
L 156.6 21.35 156.6 21.55
Q 156.6 22.3 156.1 22.9 155.6 23.55 154.85 23.55 154.3 23.55 154 23.25 153.7 22.95 153.7 22.55 153.7 21.35 156.3 21.35
M 149.4 14.5
Q 148.5 14 147.35 14 145.8 14 144.8 14.85 143.8 15.7 143.8 17 143.8 18.15 144.55 18.95 145.15 19.5 146.3 20.05 147.9 20.85 148 20.9 148.8 21.4 148.8 22 148.8 22.6 148.35 22.95 147.9 23.25 147.25 23.25 145.8 23.25 144.7 22
L 143.6 23.4
Q 144.9 25.05 147.25 25.05 148.85 25.05 149.85 24.1 150.8 23.2 150.8 21.9 150.8 20.7 150 19.9 149.45 19.3 148.3 18.8 146.6 18.05 146.55 18 145.75 17.55 145.75 16.95 145.75 16.45 146.2 16.1 146.65 15.8 147.35 15.8 147.9 15.8 148.3 16.05 148.75 16.25 148.75 16.65
L 148.75 17.1 150.5 17.1 150.5 16.1
Q 150.5 15.1 149.4 14.5
M 169.45 21.05
Q 169.45 22.7 170.55 23.85 171.7 25.05 173.55 25.05 175.45 25.05 176.6 23.9
L 175.8 22.55
Q 174.9 23.4 173.65 23.4 172.75 23.4 172.15 22.9 171.5 22.35 171.4 21.35
L 176.65 21.35
Q 176.7 20.85 176.7 20.65 176.7 19.05 175.85 18.1 174.9 17 173.3 17 171.6 17 170.5 18.15 169.45 19.25 169.45 21.05
M 174.3 18.9
Q 174.75 19.35 174.75 20.05
L 171.45 20.05
Q 171.8 18.5 173.3 18.5 173.9 18.5 174.3 18.9
M 165.1 17
Q 163.45 17 162.8 18.1
L 162.75 18.1
Q 162.8 17.8 162.8 17.45
L 162.8 15.2
Q 162.8 14.2 161.75 14.2
L 159.95 14.2 159.95 15.8 160.55 15.8
Q 160.9 15.8 160.9 16.15
L 160.9 24.85 162.7 24.85 162.7 24.45
Q 162.7 24.15 162.65 23.95
L 162.7 23.95
Q 163.4 25.05 164.95 25.05 166.5 25.05 167.5 23.95 168.45 22.85 168.45 21.05 168.45 19.25 167.55 18.15 166.65 17 165.1 17
M 164.65 18.65
Q 165.5 18.65 166 19.3 166.55 19.95 166.55 21.05 166.55 22.15 166 22.8 165.45 23.4 164.65 23.4 163.75 23.4 163.2 22.7 162.75 22.05 162.75 21.05 162.75 19.9 163.3 19.25 163.85 18.65 164.65 18.65
M 183.15 17.1
Q 182.95 17.1 182.8 17.1 181.95 17.1 181.3 17.65 180.65 18.2 180.4 19.05
L 180.35 19.05
Q 180.4 18.85 180.4 18.6
L 180.4 18.15
Q 180.4 17.2 179.35 17.2
L 177.6 17.2 177.6 18.8 178.2 18.8
Q 178.55 18.8 178.55 19.15
L 178.55 24.85 180.45 24.85 180.45 21.8
Q 180.45 21.15 180.6 20.55 180.85 19.75 181.45 19.35 182 18.95 182.7 18.95 182.95 18.95 183.15 19
L 183.15 17.1
M 189.45 17.2
L 187.7 17.2 187.7 18.8 188.3 18.8
Q 188.65 18.8 188.65 19.15
L 188.65 24.85 190.55 24.85 190.55 21.5
Q 190.55 21 190.65 20.55 190.85 19.75 191.3 19.3 191.8 18.75 192.5 18.75 193.15 18.75 193.35 19.2 193.55 19.55 193.55 20.3
L 193.55 24.85 195.45 24.85 195.45 21.5
Q 195.45 20.9 195.55 20.5 195.75 19.75 196.2 19.3 196.7 18.75 197.4 18.75 198.45 18.75 198.45 20.3
L 198.45 23.85
Q 198.45 24.85 199.45 24.85
L 201.25 24.85 201.25 23.25 200.65 23.25
Q 200.35 23.25 200.35 22.9
L 200.35 19.95
Q 200.35 17 197.85 17 196.95 17 196.25 17.5 195.55 17.95 195.25 18.6
L 195.2 18.6
Q 194.7 17 192.95 17 192.15 17 191.4 17.55 190.8 18 190.5 18.6
L 190.45 18.6
Q 190.5 18.45 190.5 18.3
L 190.5 18.05
Q 190.5 17.2 189.45 17.2
M 210.45 19.25
Q 210.45 20.65 212.45 21.55
L 213.85 22.15
Q 214.5 22.45 214.5 22.8 214.5 23.55 213.45 23.55 212.15 23.55 211.15 22.4
L 210.25 23.65
Q 211.35 25.05 213.45 25.05 214.75 25.05 215.55 24.4 216.4 23.75 216.4 22.7 216.4 21.25 214.35 20.45 213.35 20.05 212.95 19.9 212.35 19.55 212.35 19.2 212.35 18.5 213.45 18.5 213.85 18.5 214.1 18.6 214.45 18.8 214.45 19.05
L 214.45 19.4 216.1 19.4 216.1 18.6
Q 216.1 17.75 215.15 17.35 214.4 17 213.4 17 212.15 17 211.35 17.55 210.45 18.15 210.45 19.25
M 205.4 17
Q 204.4 17 203.7 17.3 202.6 17.65 202.6 18.6
L 202.6 19.4 204.35 19.4 204.35 19
Q 204.35 18.5 205.35 18.5 206.1 18.5 206.45 18.85 206.8 19.2 206.8 20
L 206.8 20.05 206.55 20.05
Q 204.9 20.05 203.8 20.45 202 21.1 202 22.65 202 23.75 202.8 24.4 203.5 25.05 204.6 25.05 206.35 25.05 206.9 23.7
L 206.95 23.7
Q 206.95 23.8 206.95 24 206.95 24.85 207.9 24.85
L 209.6 24.85 209.6 23.25 209 23.25
Q 208.7 23.25 208.7 22.9
L 208.7 20.05
Q 208.7 17 205.4 17
M 206.5 21.35
L 206.8 21.35 206.8 21.55
Q 206.8 22.3 206.3 22.9 205.8 23.55 205.05 23.55 204.5 23.55 204.2 23.25 203.9 22.95 203.9 22.55 203.9 21.35 206.5 21.35
M 204.85 16.25
L 206.2 16.25 207.8 14.2 205.95 14.2 204.85 16.25
M 32.4 17.6
L 32.4 18.4 34.15 18.4 34.15 18
Q 34.15 17.5 35.15 17.5 35.9 17.5 36.25 17.85 36.6 18.2 36.6 19
L 36.6 19.05 36.35 19.05
Q 34.7 19.05 33.6 19.45 31.8 20.1 31.8 21.65 31.8 22.75 32.6 23.4 33.3 24.05 34.4 24.05 36.15 24.05 36.7 22.7
L 36.75 22.7
Q 36.75 22.8 36.75 23 36.75 23.85 37.7 23.85
L 39.4 23.85 39.4 22.25 38.8 22.25
Q 38.5 22.25 38.5 21.9
L 38.5 19.05
Q 38.5 16 35.2 16 34.2 16 33.5 16.3 32.4 16.65 32.4 17.6
M 34 22.25
Q 33.7 21.95 33.7 21.55 33.7 20.35 36.3 20.35
L 36.6 20.35 36.6 20.55
Q 36.6 21.3 36.1 21.9 35.6 22.55 34.85 22.55 34.3 22.55 34 22.25
M 26.2 15.1
Q 26.65 14.8 27.35 14.8 27.9 14.8 28.3 15.05 28.75 15.25 28.75 15.65
L 28.75 16.1 30.5 16.1 30.5 15.1
Q 30.5 14.1 29.4 13.5 28.5 13 27.35 13 25.8 13 24.8 13.85 23.8 14.7 23.8 16 23.8 17.15 24.55 17.95 25.15 18.5 26.3 19.05 27.9 19.85 28 19.9 28.8 20.4 28.8 21 28.8 21.6 28.35 21.95 27.9 22.25 27.25 22.25 25.8 22.25 24.7 21
L 23.6 22.4
Q 24.9 24.05 27.25 24.05 28.85 24.05 29.85 23.1 30.8 22.2 30.8 20.9 30.8 19.7 30 18.9 29.45 18.3 28.3 17.8 26.6 17.05 26.55 17 25.75 16.55 25.75 15.95 25.75 15.45 26.2 15.1
M 49.45 20.05
Q 49.45 21.7 50.55 22.85 51.7 24.05 53.55 24.05 55.45 24.05 56.6 22.9
L 55.8 21.55
Q 54.9 22.4 53.65 22.4 52.75 22.4 52.15 21.9 51.5 21.35 51.4 20.35
L 56.65 20.35
Q 56.7 19.85 56.7 19.65 56.7 18.05 55.85 17.1 54.9 16 53.3 16 51.6 16 50.5 17.15 49.45 18.25 49.45 20.05
M 53.3 17.5
Q 53.9 17.5 54.3 17.9 54.75 18.35 54.75 19.05
L 51.45 19.05
Q 51.8 17.5 53.3 17.5
M 45.1 16
Q 43.45 16 42.8 17.1
L 42.75 17.1
Q 42.8 16.8 42.8 16.45
L 42.8 14.2
Q 42.8 13.2 41.75 13.2
L 39.95 13.2 39.95 14.8 40.55 14.8
Q 40.9 14.8 40.9 15.15
L 40.9 23.85 42.7 23.85 42.7 23.45
Q 42.7 23.15 42.65 22.95
L 42.7 22.95
Q 43.4 24.05 44.95 24.05 46.5 24.05 47.5 22.95 48.45 21.85 48.45 20.05 48.45 18.25 47.55 17.15 46.65 16 45.1 16
M 43.3 18.25
Q 43.85 17.65 44.65 17.65 45.5 17.65 46 18.3 46.55 18.95 46.55 20.05 46.55 21.15 46 21.8 45.45 22.4 44.65 22.4 43.75 22.4 43.2 21.7 42.75 21.05 42.75 20.05 42.75 18.9 43.3 18.25
M 63.15 18
L 63.15 16.1
Q 62.95 16.1 62.8 16.1 61.95 16.1 61.3 16.65 60.65 17.2 60.4 18.05
L 60.35 18.05
Q 60.4 17.85 60.4 17.6
L 60.4 17.15
Q 60.4 16.2 59.35 16.2
L 57.6 16.2 57.6 17.8 58.2 17.8
Q 58.55 17.8 58.55 18.15
L 58.55 23.85 60.45 23.85 60.45 20.8
Q 60.45 20.15 60.6 19.55 60.85 18.75 61.45 18.35 62 17.95 62.7 17.95 62.95 17.95 63.15 18
M 92.35 18.2
Q 92.35 17.5 93.45 17.5 93.85 17.5 94.1 17.6 94.45 17.8 94.45 18.05
L 94.45 18.4 96.1 18.4 96.1 17.6
Q 96.1 16.75 95.15 16.35 94.4 16 93.4 16 92.15 16 91.35 16.55 90.45 17.15 90.45 18.25 90.45 19.65 92.45 20.55
L 93.85 21.15
Q 94.5 21.45 94.5 21.8 94.5 22.55 93.45 22.55 92.15 22.55 91.15 21.4
L 90.25 22.65
Q 91.35 24.05 93.45 24.05 94.75 24.05 95.55 23.4 96.4 22.75 96.4 21.7 96.4 20.25 94.35 19.45 93.35 19.05 92.95 18.9 92.35 18.55 92.35 18.2
M 81.25 23.85
L 81.25 22.25 80.65 22.25
Q 80.35 22.25 80.35 21.9
L 80.35 18.95
Q 80.35 16 77.85 16 76.95 16 76.25 16.5 75.55 16.95 75.25 17.6
L 75.2 17.6
Q 74.7 16 72.95 16 72.15 16 71.4 16.55 70.8 17 70.5 17.6
L 70.45 17.6
Q 70.5 17.45 70.5 17.3
L 70.5 17.05
Q 70.5 16.2 69.45 16.2
L 67.7 16.2 67.7 17.8 68.3 17.8
Q 68.65 17.8 68.65 18.15
L 68.65 23.85 70.55 23.85 70.55 20.5
Q 70.55 20 70.65 19.55 70.85 18.75 71.3 18.3 71.8 17.75 72.5 17.75 73.15 17.75 73.35 18.2 73.55 18.55 73.55 19.3
L 73.55 23.85 75.45 23.85 75.45 20.5
Q 75.45 19.9 75.55 19.5 75.75 18.75 76.2 18.3 76.7 17.75 77.4 17.75 78.45 17.75 78.45 19.3
L 78.45 22.85
Q 78.45 23.85 79.45 23.85
L 81.25 23.85
M 82.6 17.6
L 82.6 18.4 84.35 18.4 84.35 18
Q 84.35 17.5 85.35 17.5 86.1 17.5 86.45 17.85 86.8 18.2 86.8 19
L 86.8 19.05 86.55 19.05
Q 84.9 19.05 83.8 19.45 82 20.1 82 21.65 82 22.75 82.8 23.4 83.5 24.05 84.6 24.05 86.35 24.05 86.9 22.7
L 86.95 22.7
Q 86.95 22.8 86.95 23 86.95 23.85 87.9 23.85
L 89.6 23.85 89.6 22.25 89 22.25
Q 88.7 22.25 88.7 21.9
L 88.7 19.05
Q 88.7 16 85.4 16 84.4 16 83.7 16.3 82.6 16.65 82.6 17.6
M 84.2 22.25
Q 83.9 21.95 83.9 21.55 83.9 20.35 86.5 20.35
L 86.8 20.35 86.8 20.55
Q 86.8 21.3 86.3 21.9 85.8 22.55 85.05 22.55 84.5 22.55 84.2 22.25
M 86.2 15.25
L 87.8 13.2 85.95 13.2 84.85 15.25 86.2 15.25 Z"/>
</g>
</defs>

<g transform="matrix( 1, 0, 0, 1, 0,0) ">
<use xlink:href="#Layer4_0_FILL"/>
</g>

<g transform="matrix( 1, 0, 0, 1, 0,0) ">
<use xlink:href="#Layer3_0_FILL"/>
</g>

<g transform="matrix( 1, 0, 0, 1, 0,0) ">
<use xlink:href="#Layer2_0_FILL"/>
</g>

<g transform="matrix( 1, 0, 0, 1, 0,0) ">
<use xlink:href="#Layer1_0_FILL"/>
</g>

<g transform="matrix( 1, 0, 0, 1, 0,0) ">
<use xlink:href="#Layer0_0_FILL"/>
</g>
</svg>
