
<svg xmlns="http://www.w3.org/2000/svg" version="1.1" xmlns:xlink="http://www.w3.org/1999/xlink" preserveAspectRatio="none" x="0px" y="0px" width="176px" height="48px" viewBox="0 0 176 48">
<defs>
<g id="Layer0_0_FILL">
<path fill="#FFFFFF" stroke="none" d="
M 34.35 4.8
Q 28.6 0 21 0 12.3 0 6.15 6.15 0 12.3 0 21.05 0 29.45 5.8 35.5 11.55 41.6 19.9 42
L 26 31.55 26 47.7 37.5 45.25 37.5 19.95 26.05 22.35 26.05 30.1
Q 23.75 31.4 21 31.4 16.7 31.4 13.65 28.35 10.6 25.35 10.6 21.05 10.6 16.75 13.65 13.7 16.7 10.65 21 10.65 25.8 10.65 28.95 14.3
L 34.35 4.8
M 77.6 6.15
Q 71.45 0 62.7 0 54 0 47.85 6.15 41.7 12.3 41.7 21.05 41.7 29.75 47.85 35.9 54 42.05 62.7 42.05 71.45 42.05 77.6 35.9 83.75 29.75 83.75 21.05 83.75 12.3 77.6 6.15
M 62.7 10.65
Q 67 10.65 70.05 13.7 73.1 16.75 73.1 21.05 73.1 25.35 70.05 28.35 67 31.4 62.7 31.4 58.45 31.4 55.4 28.35 52.35 25.35 52.35 21.05 52.35 16.75 55.4 13.7 58.4 10.65 62.7 10.65
M 122.85 14.75
L 122.8 0.95 112.15 0.95 112.15 14.75
Q 112.15 17.55 110.2 19.5 108.2 21.45 105.4 21.45 102.65 21.45 100.65 19.5 98.7 17.55 98.7 14.75
L 98.7 0.95 88 0.95 88 14.75
Q 88 20.5 91.45 25.1 94.8 29.65 100.15 31.35
L 100.15 40.95 110.8 40.95 110.8 31.3
Q 116.1 29.6 119.45 25.1 122.85 20.5 122.85 14.75
M 165.75 40.95
L 165.75 19.3
Q 165.75 11.5 160.2 5.95 154.7 0.4 146.85 0.4 139 0.4 133.5 5.95 127.95 11.5 127.95 19.3
L 127.95 40.95 138.6 40.95 138.6 34 155.1 34 155.1 40.95 165.75 40.95
M 146.85 11.05
Q 150.25 11.05 152.7 13.45 155.1 15.9 155.1 19.3
L 155.1 23.25 138.6 23.25 138.6 19.3
Q 138.6 15.9 141 13.45 143.4 11.05 146.85 11.05
M 172.05 34.1
Q 170.5 34.1 169.45 35.2 168.35 36.25 168.35 37.8 168.35 39.3 169.45 40.4 170.5 41.45 172.05 41.45 173.6 41.45 174.65 40.4 175.75 39.3 175.75 37.8 175.75 36.25 174.65 35.2 173.6 34.1 172.05 34.1
M 169.7 35.35
Q 170.65 34.4 172.05 34.4 173.45 34.4 174.4 35.4 175.35 36.35 175.35 37.75 175.35 39.2 174.4 40.15 173.45 41.15 172.05 41.15 170.65 41.15 169.7 40.15 168.75 39.2 168.75 37.8 168.75 36.35 169.7 35.35
M 173.75 36.8
Q 173.75 35.6 172.35 35.6
L 170.7 35.6 170.7 39.95 171.1 39.95 171.1 37.95 172.2 37.95 173.5 39.95 173.95 39.95 172.65 37.95
Q 173.75 37.75 173.75 36.8
M 172.3 35.9
Q 173.4 35.9 173.4 36.8 173.4 37.6 172 37.6
L 171.1 37.6 171.1 35.9 172.3 35.9 Z"/>
</g>
</defs>

<g transform="matrix( 1, 0, 0, 1, 0,0) ">
<use xlink:href="#Layer0_0_FILL"/>
</g>
</svg>
